<?xml version="1.0" encoding="UTF-8" standalone="no"?>
<svg width="512" height="512" viewBox="0 0 512 512" version="1.1" xmlns="http://www.w3.org/2000/svg">
  <rect width="512" height="512" fill="white"/>
  <g transform="translate(70, 70) scale(0.73)">
    <!-- BS Logo -->
    <g fill="black">
      <!-- B part -->
      <path d="M 115,130 C 160,130 185,160 185,200 C 185,230 170,250 145,260 C 180,270 195,300 195,330 C 195,380 160,410 110,410 L 10,410 L 10,130 L 115,130 Z M 95,245 L 95,190 L 55,190 L 55,245 L 95,245 Z M 100,350 L 100,290 L 55,290 L 55,350 L 100,350 Z"/>
      
      <!-- S part -->
      <path d="M 390,135 C 450,135 490,170 490,230 L 445,230 C 445,195 425,180 390,180 C 355,180 335,195 335,220 C 335,240 345,255 390,260 C 450,270 490,290 490,345 C 490,390 450,415 390,415 C 320,415 280,380 280,320 L 325,320 C 325,360 345,375 390,375 C 425,375 445,365 445,340 C 445,315 430,305 380,295 C 320,285 280,265 280,215 C 280,165 325,135 390,135 Z"/>
    </g>
    
    <!-- Center line -->
    <line x1="250" y1="100" x2="250" y2="425" stroke="black" stroke-width="3"/>
    
    <!-- BLACKSMITH TRADERS text -->
    <text x="250" y="450" font-family="Arial, sans-serif" font-size="24" text-anchor="middle" fill="black">BLACKSMITH TRADERS</text>
  </g>
</svg>